<svg width="23" height="23" viewBox="0 0 23 23" fill="none" xmlns="http://www.w3.org/2000/svg">
<g clip-path="url(#clip0_296_27039)">
<path d="M11.5 7.3734e-06C14.1616 -0.000753433 16.7411 0.921439 18.799 2.60944C20.8568 4.29743 22.2657 6.64678 22.7855 9.25714C23.3053 11.8675 22.9039 14.5773 21.6496 16.9249C20.3953 19.2724 18.3658 21.1124 15.9069 22.1313C13.4481 23.1501 10.712 23.2848 8.1649 22.5124C5.61783 21.74 3.4174 20.1083 1.93858 17.8954C0.459762 15.6824 -0.205943 13.0251 0.0549107 10.3763C0.315764 7.72752 1.48703 5.25114 3.36913 3.36915C4.43566 2.29964 5.70301 1.45143 7.09837 0.873244C8.49372 0.295057 9.98958 -0.00170558 11.5 7.3734e-06ZM16.5836 10.6353V12.3648C16.5836 12.5633 16.5048 12.7538 16.3644 12.8942C16.2239 13.0346 16.0335 13.1135 15.8349 13.1135H13.1022V15.8387C13.1022 16.0373 13.0233 16.2277 12.8829 16.3681C12.7425 16.5085 12.5521 16.5874 12.3535 16.5874H10.6352C10.4367 16.5874 10.2462 16.5085 10.1058 16.3681C9.96542 16.2277 9.88654 16.0373 9.88654 15.8387V13.1022H7.16128C6.96271 13.1022 6.77228 13.0233 6.63187 12.8829C6.49146 12.7425 6.41258 12.5521 6.41258 12.3535V10.6353C6.41258 10.4367 6.49146 10.2463 6.63187 10.1059C6.77228 9.96544 6.96271 9.88656 7.16128 9.88656H9.89028V7.1613C9.89028 6.96274 9.96917 6.7723 10.1096 6.63189C10.25 6.49148 10.4404 6.4126 10.639 6.4126H12.3685C12.567 6.4126 12.7575 6.49148 12.8979 6.63189C13.0383 6.7723 13.1172 6.96274 13.1172 7.1613V9.89031H15.8387C16.0373 9.89031 16.2277 9.96919 16.3681 10.1096C16.5085 10.25 16.5874 10.4404 16.5874 10.639L16.5836 10.6353ZM18.2364 4.7636C16.6777 3.20373 14.6264 2.23258 12.432 2.01564C10.2376 1.79871 8.03583 2.3494 6.20192 3.57389C4.36802 4.79838 3.01545 6.62089 2.37469 8.73086C1.73393 10.8408 1.84463 13.1077 2.68793 15.1452C3.53123 17.1827 5.05495 18.8648 6.99944 19.9047C8.94392 20.9447 11.1889 21.2783 13.3517 20.8485C15.5146 20.4188 17.4615 19.2524 18.8607 17.5481C20.26 15.8438 21.0249 13.707 21.0253 11.5019C21.0269 10.2504 20.7814 9.01095 20.3028 7.85462C19.8242 6.69829 19.122 5.64785 18.2364 4.7636Z" fill="#87C4E7"/>
</g>
<defs>
<clipPath id="clip0_296_27039">
<rect width="23" height="23" fill="white"/>
</clipPath>
</defs>
</svg>
