<svg width="21" height="23" viewBox="0 0 21 23" fill="none" xmlns="http://www.w3.org/2000/svg">
<path d="M15.8906 0H6.54688H6.45272H5.96109C5.87125 0 5.785 0.0337812 5.71887 0.0941563L5.65706 0.150219C5.55356 0.200531 5.45294 0.263063 5.36238 0.352188L3.57412 2.05347L0.554656 4.81131C0.479906 4.87959 0.4375 4.97591 0.4375 5.07653V5.39062V5.58325V18.3281C0.4375 18.9225 0.921219 19.4062 1.51562 19.4062H15.8906C16.485 19.4062 16.9688 18.9225 16.9688 18.3281V1.07812C16.9688 0.483719 16.485 0 15.8906 0ZM1.48903 5.02837L4.06503 2.57744L6.04519 0.769063C6.08831 0.755406 6.13144 0.741031 6.1875 0.733844V5.03125H1.48616L1.48903 5.02837ZM16.25 18.3281C16.25 18.5258 16.089 18.6875 15.8906 18.6875H1.51562C1.31725 18.6875 1.15625 18.5258 1.15625 18.3281V5.75H6.54688C6.74525 5.75 6.90625 5.589 6.90625 5.39062V0.71875H15.8906C16.089 0.71875 16.25 0.880469 16.25 1.07812V18.3281Z" fill="#808080"/>
<path d="M19.4844 22.2812H5.10938C4.911 22.2812 4.75 22.1195 4.75 21.9219V21.4877C4.75 21.2894 4.589 21.1284 4.39062 21.1284C4.19225 21.1284 4.03125 21.2894 4.03125 21.4877V21.9219C4.03125 22.5163 4.51497 23 5.10938 23H19.4844C20.0788 23 20.5625 22.5163 20.5625 21.9219V4.67188C20.5625 4.07747 20.0788 3.59375 19.4844 3.59375H18.9151C18.7168 3.59375 18.5557 3.75475 18.5557 3.95312C18.5557 4.1515 18.7168 4.3125 18.9151 4.3125H19.4844C19.6827 4.3125 19.8438 4.47422 19.8438 4.67188V21.9219C19.8438 22.1195 19.6827 22.2812 19.4844 22.2812Z" fill="#808080"/>
<path d="M13.375 7.90625H4.03125C3.83287 7.90625 3.67188 8.06725 3.67188 8.26562C3.67188 8.464 3.83287 8.625 4.03125 8.625H13.375C13.5734 8.625 13.7344 8.464 13.7344 8.26562C13.7344 8.06725 13.5734 7.90625 13.375 7.90625Z" fill="#808080"/>
<path d="M13.375 10.7812H4.03125C3.83287 10.7812 3.67188 10.9422 3.67188 11.1406C3.67188 11.339 3.83287 11.5 4.03125 11.5H13.375C13.5734 11.5 13.7344 11.339 13.7344 11.1406C13.7344 10.9422 13.5734 10.7812 13.375 10.7812Z" fill="#808080"/>
<path d="M13.375 13.6562H4.03125C3.83287 13.6562 3.67188 13.8172 3.67188 14.0156C3.67188 14.214 3.83287 14.375 4.03125 14.375H13.375C13.5734 14.375 13.7344 14.214 13.7344 14.0156C13.7344 13.8172 13.5734 13.6562 13.375 13.6562Z" fill="#808080"/>
</svg>
