<svg width="15" height="15" viewBox="0 0 15 15" fill="none" xmlns="http://www.w3.org/2000/svg">
<path fill-rule="evenodd" clip-rule="evenodd" d="M10.5 7.50028C10.5 7.89457 10.164 8.21456 9.75 8.21456H5.25C4.836 8.21456 4.5 7.89457 4.5 7.50028C4.5 7.10599 4.836 6.78599 5.25 6.78599H9.75C10.164 6.78599 10.5 7.10599 10.5 7.50028ZM7.5 13.2146C4.19175 13.2146 1.5 10.651 1.5 7.50028C1.5 4.34957 4.19175 1.78599 7.5 1.78599C10.8083 1.78599 13.5 4.34957 13.5 7.50028C13.5 10.651 10.8083 13.2146 7.5 13.2146ZM7.5 0.357422C3.35775 0.357422 0 3.55528 0 7.50028C0 11.4453 3.35775 14.6431 7.5 14.6431C11.6423 14.6431 15 11.4453 15 7.50028C15 3.55528 11.6423 0.357422 7.5 0.357422Z" fill="#808080"/>
</svg>
