<svg width="15" height="15" viewBox="0 0 15 15" fill="none" xmlns="http://www.w3.org/2000/svg">
<path fill-rule="evenodd" clip-rule="evenodd" d="M1.875 4.375C1.875 4.02982 2.15482 3.75 2.5 3.75H12.5C12.8452 3.75 13.125 4.02982 13.125 4.375C13.125 4.72018 12.8452 5 12.5 5H2.5C2.15482 5 1.875 4.72018 1.875 4.375ZM3.75 7.5C3.75 7.15481 4.02982 6.875 4.375 6.875H10.625C10.9702 6.875 11.25 7.15481 11.25 7.5C11.25 7.84519 10.9702 8.125 10.625 8.125H4.375C4.02982 8.125 3.75 7.84519 3.75 7.5ZM5.625 10.625C5.625 10.2798 5.90482 10 6.25 10H8.75C9.09519 10 9.375 10.2798 9.375 10.625C9.375 10.9702 9.09519 11.25 8.75 11.25H6.25C5.90482 11.25 5.625 10.9702 5.625 10.625Z" fill="#808080"/>
</svg>
