<svg width="40" height="40" viewBox="0 0 40 40" fill="none" xmlns="http://www.w3.org/2000/svg">
<g clip-path="url(#clip0_135_1863)">
<mask id="mask0_135_1863" style="mask-type:luminance" maskUnits="userSpaceOnUse" x="0" y="0" width="40" height="40">
<path d="M40 0H0V40H40V0Z" fill="white"/>
</mask>
<g mask="url(#mask0_135_1863)">
<path d="M24.0001 1.26831C23.8433 1.27179 23.6864 1.27879 23.5302 1.28906C22.5595 1.35292 21.6009 1.53801 20.6518 1.74438C20.3167 1.81725 19.9822 1.89344 19.6471 1.96655C19.1749 2.06959 18.702 2.16956 18.2323 2.28394C17.456 2.47301 16.6851 2.68789 15.9228 2.92725C13.8987 3.56275 11.9338 4.37629 10.0524 5.35398C8.6721 3.31608 7.53878 1.67798 7.51823 1.69189C6.36812 2.96428 5.24671 4.26254 4.22601 5.64211C3.14698 7.10039 2.18202 8.64328 1.34025 10.2502C0.957443 10.981 0.564744 11.7064 0.224525 12.4585C0.128404 12.671 0.0344514 12.8864 -0.0391465 13.1079C-0.0635238 13.1812 -0.086807 13.256 -0.0989609 13.3325C-0.104079 13.3647 -0.108052 13.3989 -0.102623 13.4314C-0.0993121 13.4512 -0.0900336 13.4715 -0.0806504 13.4887C-0.0634996 13.5204 -0.0470695 13.553 -0.0269394 13.5828C1.6496 16.0652 3.32731 18.5461 5.00847 21.0254C5.0303 21.0576 5.05679 21.087 5.08171 21.117C5.09468 21.1325 5.11206 21.1463 5.13054 21.1548C5.23538 21.203 5.368 21.0777 5.43327 21.0095C5.44577 20.9964 5.45894 20.9839 5.47109 20.9705C5.57843 20.8523 5.66523 20.7187 5.76163 20.592C5.7989 20.543 5.8405 20.4976 5.88003 20.4504C5.94878 20.3684 6.01714 20.2856 6.08632 20.2039C6.64112 19.5486 7.21308 18.9063 7.80632 18.2849C7.64601 18.5467 7.48116 18.8057 7.32655 19.0711C6.63796 20.253 6.00499 21.4694 5.46011 22.7246C5.37347 22.9243 5.28878 23.1238 5.2062 23.3252C5.14175 23.4824 5.0764 23.6407 5.02066 23.8012C4.99109 23.8865 4.96308 23.9712 4.94132 24.0588C4.93046 24.1025 4.91956 24.15 4.923 24.1955C4.92484 24.2198 4.93616 24.2423 4.94866 24.2627C5.00808 24.3599 5.0655 24.4588 5.12929 24.5532C6.60148 26.7313 8.07925 28.9058 9.55679 31.0803C9.57862 31.1124 9.60218 31.1436 9.63003 31.1707C9.73737 31.2747 9.88315 31.1573 9.96452 31.0803C10.0518 30.9977 10.1258 30.9017 10.2038 30.8105C10.3215 30.6729 10.4395 30.535 10.5566 30.3967C10.6467 30.2902 10.7342 30.1815 10.8239 30.0745C10.7837 30.1668 10.739 30.2572 10.7006 30.3503C10.5375 30.7459 10.386 31.1527 10.2978 31.5723C10.2539 31.7805 10.2208 32.0007 10.2526 32.2131C10.2591 32.2565 10.2642 32.3153 10.2892 32.3535C10.6428 32.8941 10.9928 33.4384 11.3549 33.9734C12.0391 34.9845 12.7362 35.9868 13.4289 36.9922C13.4329 36.998 13.438 37.0013 13.4435 37.0056C13.4817 37.0355 13.5342 37.0228 13.5741 37.0044C13.646 36.9713 13.7077 36.9155 13.7646 36.8616C13.9755 36.6613 14.1436 36.4182 14.3261 36.1926C15.1488 35.1754 15.9519 34.143 16.7614 33.1152C17.3092 32.4196 17.8557 31.722 18.413 31.0339C18.5709 30.8389 18.7311 30.6456 18.8903 30.4516C19.2391 30.0266 19.5898 29.6039 19.9499 29.1882C20.9181 28.0705 21.9388 26.9979 23.0199 25.9887C22.4506 26.7455 21.9078 27.522 21.3976 28.3179C20.9802 28.969 20.582 29.6319 20.2013 30.3052C20.0017 30.6582 19.8114 31.0165 19.6166 31.3721C19.4158 31.7387 19.2116 32.1037 19.0136 32.4719C18.701 33.0532 18.3983 33.6391 18.1188 34.2371C17.922 34.6582 17.7336 35.0857 17.5805 35.5249C17.4837 35.8025 17.3927 36.0913 17.3656 36.3855C17.3584 36.4636 17.3555 36.5431 17.3656 36.6211C17.3677 36.6373 17.3704 36.661 17.3778 36.6773C17.3811 36.6844 17.3832 36.6915 17.3876 36.698C17.9587 37.5431 18.5314 38.3881 19.1039 39.232C19.1066 39.2363 19.1101 39.2387 19.1137 39.2418C19.1477 39.2715 19.2166 39.2137 19.2406 39.193C19.3398 39.1086 19.4233 39.0025 19.5031 38.9002C19.5285 38.8675 19.5552 38.8319 19.58 38.7988C19.6062 38.7638 19.6336 38.7268 19.6593 38.6914C19.7005 38.6349 19.7414 38.5778 19.7814 38.5205C19.9369 38.2981 20.0858 38.0721 20.2331 37.8442C20.311 37.7236 20.3848 37.5989 20.4662 37.4805C20.8106 36.9794 21.1627 36.4843 21.5233 35.9949C23.0933 33.8643 24.8313 31.8476 26.7858 30.0598C27.9509 28.9942 29.1962 28.0104 30.5151 27.1387C29.6608 27.9901 28.8435 28.8793 28.0822 29.8157C27.5088 30.5209 26.958 31.245 26.4526 32.0007C26.0787 32.5597 25.7059 33.1208 25.3441 33.6877C25.2565 33.8251 25.1686 33.962 25.0866 34.1028C25.0687 34.1335 25.0503 34.1645 25.0353 34.1968C25.0337 34.2002 25.0243 34.2157 25.0268 34.22C25.0444 34.2506 25.0619 34.281 25.0817 34.3103C25.466 34.8791 25.8527 35.4469 26.2389 36.0144C26.2437 36.0213 26.2553 36.0344 26.2621 36.0412C26.3394 36.1195 26.4464 36.0755 26.527 36.0266C26.5896 35.9886 26.6473 35.9435 26.7077 35.9021C26.8333 35.8158 26.9577 35.7295 27.08 35.6384C27.6921 35.1826 28.2536 34.6616 28.7938 34.1223C28.7939 34.1243 28.7937 34.1264 28.7938 34.1284C28.7965 34.179 28.8096 34.2348 28.8378 34.2773C29.09 34.6572 29.3415 35.0375 29.5971 35.415C29.7129 35.5862 29.8331 35.7553 29.9523 35.9241C29.958 35.9321 29.9746 35.947 29.9828 35.9534C30.0571 36.0105 30.1574 35.9801 30.2331 35.9424C30.3979 35.8602 30.5171 35.7201 30.6554 35.603C30.9039 35.3927 31.1409 35.169 31.3805 34.9487C31.7517 34.6076 32.1227 34.2655 32.4962 33.927C32.9225 33.5408 33.3536 33.1603 33.789 32.7844C33.4859 33.1697 33.1855 33.5566 32.8917 33.949C32.4776 34.5022 32.0714 35.0637 31.704 35.6494C31.4935 35.985 31.2851 36.3323 31.1449 36.7041C31.088 36.8552 31.0185 37.058 31.0619 37.2229C31.0631 37.2273 31.0704 37.2507 31.0729 37.2546C31.0771 37.2613 31.0821 37.2675 31.0863 37.2742C31.1508 37.3763 31.2152 37.4793 31.2829 37.5793C31.5677 38.0003 31.8551 38.4193 32.1435 38.8379C32.1592 38.8607 32.2067 38.856 32.2289 38.8525C32.3005 38.8414 32.3692 38.8091 32.434 38.7781C32.6995 38.6509 32.947 38.4841 33.1933 38.324C33.8955 37.8673 34.5828 37.377 35.3258 36.9873C35.5231 36.8838 35.7279 36.7864 35.9423 36.7236C36.0642 36.6879 36.192 36.6628 36.3183 36.6882C36.3226 36.6853 36.0911 36.335 35.8007 35.9058C35.5103 35.4765 35.2715 35.1302 35.2672 35.133C35.1267 35.1046 34.9817 35.1382 34.8473 35.1807C34.6665 35.2378 34.4937 35.3184 34.3249 35.4041C34.1622 35.4866 34.0036 35.5776 33.8463 35.6702C34.6923 34.5355 35.5925 33.4438 36.4794 32.3413C36.6521 32.1267 36.8224 31.9109 36.986 31.6895C37.0804 31.5617 37.1758 31.4364 37.2484 31.2939C37.32 31.1536 37.3792 30.9918 37.3656 30.8313C37.3602 30.7674 37.3431 30.6991 37.3083 30.6445C37.2417 30.5403 37.1749 30.4357 37.1056 30.3332C36.8143 29.9025 36.5206 29.4744 36.2267 29.0454C36.2134 29.026 36.1936 29.0085 36.1742 28.9953C36.0562 28.9153 35.8744 28.9651 35.7519 29.0076C35.6155 29.0548 35.4851 29.1189 35.3588 29.1882C35.3022 29.2193 35.2493 29.2564 35.194 29.2895C35.2417 29.2311 35.292 29.1748 35.338 29.115C35.4041 29.0291 35.4694 28.9417 35.5236 28.8477C35.5493 28.803 35.5779 28.7532 35.5846 28.7012C35.5854 28.6953 35.5884 28.6811 35.5846 28.6755C35.2058 28.1143 34.8256 27.5539 34.4457 26.9934C34.4445 26.9916 34.4427 26.9897 34.4408 26.9885C34.4176 26.9732 34.3442 27.0014 34.3212 27.0093C34.2135 27.046 34.1093 27.0943 34.0062 27.1423C33.923 27.1811 33.8409 27.2238 33.7585 27.2644C33.7596 27.2635 33.761 27.2629 33.7621 27.262C34.1583 26.9298 34.5599 26.6051 34.9682 26.2878C35.1883 26.1168 35.4078 25.9441 35.6359 25.7837C36.2847 25.3275 36.9376 24.8735 37.5512 24.3701C37.7185 24.2329 37.8861 24.0921 38.0358 23.9355C38.1004 23.868 38.1872 23.7795 38.2152 23.6877C38.2251 23.6556 38.2208 23.628 38.2018 23.5998C37.7489 22.9282 37.2943 22.2572 36.8395 21.5869C36.8255 21.5662 36.8078 21.5473 36.787 21.5332C36.6827 21.4626 36.5143 21.4826 36.3976 21.5015C36.0882 21.5515 35.7878 21.6656 35.4979 21.781C35.0593 21.9555 34.6307 22.1566 34.2065 22.3633C33.9583 22.4841 33.7135 22.6123 33.463 22.7283C33.3762 22.7684 33.2858 22.8018 33.1969 22.8369C33.1113 22.8708 33.027 22.9058 32.9418 22.9407C32.6633 23.0546 32.3866 23.1745 32.1129 23.2996C30.6343 23.9756 29.2308 24.7986 27.8991 25.7263C28.8716 24.8184 29.9019 23.973 30.996 23.2129C31.5587 22.822 32.1352 22.4528 32.7379 22.1265C33.6241 21.6467 34.5532 21.2536 35.4747 20.8484C35.7877 20.7108 36.0994 20.5718 36.4098 20.4285C36.5494 20.364 36.6912 20.3001 36.8285 20.2307C36.9502 20.1692 37.0713 20.1021 37.1764 20.0146C37.225 19.9742 37.2753 19.9266 37.3022 19.8682C37.327 19.814 37.3172 19.7528 37.2863 19.7021C37.2356 19.6194 37.1868 19.5359 37.1325 19.4555C36.4124 18.3906 35.6872 17.3293 34.9633 16.2671C34.9556 16.2559 34.9468 16.2454 34.9376 16.2353C34.874 16.1656 34.7831 16.1247 34.6947 16.0962C34.5303 16.0432 34.355 16.0272 34.1833 16.0205C34.1483 16.0191 34.1132 16.0222 34.0783 16.0217C34.5833 15.7392 35.0799 15.4424 35.548 15.1013C35.7978 14.9193 36.0402 14.7273 36.2731 14.5239C36.3975 14.4153 36.545 14.3192 36.5844 14.148C36.6155 14.0123 36.5869 13.8273 36.516 13.7085C36.4657 13.6242 36.416 13.5384 36.361 13.457C35.0775 11.5571 33.7889 9.66109 32.4999 7.76488C32.4713 7.72273 32.4381 7.68273 32.4022 7.64648C32.1592 7.40035 31.7372 7.37328 31.4122 7.37914C31.1744 7.38348 30.9381 7.41265 30.703 7.44996C29.4899 5.65305 28.2774 3.85565 27.0617 2.06055C27.0394 2.02764 27.0132 1.99662 26.9872 1.96655C26.9492 1.92259 26.8821 1.91384 26.8322 1.88965C26.8037 1.87582 26.7777 1.85692 26.7504 1.84082C26.7071 1.81528 26.6666 1.79236 26.6222 1.7688C26.2428 1.56743 25.8269 1.44055 25.4052 1.36475C24.9419 1.28146 24.4707 1.25786 24.0001 1.26831Z" fill="#B1D192"/>
<g filter="url(#filter0_d_135_1863)">
<path d="M0.251953 10.7567H3.86658V28.1684H0.251953V10.7567Z" fill="#87C4E7"/>
<path d="M20.6641 12.2568C22.4202 13.8554 23.2983 16.2495 23.2983 19.4388C23.2983 22.5652 22.4202 24.9592 20.6641 26.6208C19.3489 27.9753 17.4471 28.6526 14.9586 28.6526C12.4701 28.6526 10.5683 27.9753 9.25319 26.6208C7.48917 24.9592 6.60718 22.5652 6.60718 19.4388C6.60718 16.2495 7.48917 13.8554 9.25319 12.2568C10.5683 10.9023 12.4701 10.2251 14.9586 10.2251C17.4471 10.2251 19.3489 10.9023 20.6641 12.2568ZM14.9586 13.3081C13.5175 13.3081 12.3678 13.8397 11.5094 14.9028C10.651 15.966 10.2218 17.478 10.2218 19.4388C10.2218 21.3997 10.651 22.9117 11.5094 23.9749C12.3678 25.038 13.5175 25.5696 14.9586 25.5696C16.3998 25.5696 17.5436 25.038 18.3901 23.9749C19.2367 22.9117 19.66 21.3997 19.66 19.4388C19.66 17.4858 19.2367 15.9758 18.3901 14.9087C17.5436 13.8417 16.3998 13.3081 14.9586 13.3081Z" fill="#87C4E7"/>
<path d="M39.3748 25.038V28.1684H26.1804V10.7567H38.9498V13.8398H29.736V17.5371H38.1937V20.5611H29.736V25.038H39.3748Z" fill="#87C4E7"/>
</g>
</g>
</g>
<defs>
<filter id="filter0_d_135_1863" x="-3.74805" y="10.2251" width="47.1228" height="26.4275" filterUnits="userSpaceOnUse" color-interpolation-filters="sRGB">
<feFlood flood-opacity="0" result="BackgroundImageFix"/>
<feColorMatrix in="SourceAlpha" type="matrix" values="0 0 0 0 0 0 0 0 0 0 0 0 0 0 0 0 0 0 127 0" result="hardAlpha"/>
<feOffset dy="4"/>
<feGaussianBlur stdDeviation="2"/>
<feComposite in2="hardAlpha" operator="out"/>
<feColorMatrix type="matrix" values="0 0 0 0 0 0 0 0 0 0 0 0 0 0 0 0 0 0 0.25 0"/>
<feBlend mode="normal" in2="BackgroundImageFix" result="effect1_dropShadow_135_1863"/>
<feBlend mode="normal" in="SourceGraphic" in2="effect1_dropShadow_135_1863" result="shape"/>
</filter>
<clipPath id="clip0_135_1863">
<rect width="40" height="40" fill="white"/>
</clipPath>
</defs>
</svg>
