<svg width="60" height="60" viewBox="0 0 60 60" fill="none" xmlns="http://www.w3.org/2000/svg">
<path d="M48.1483 56.7273H9.66977C4.63087 56.7273 0.54541 52.6418 0.54541 47.6029V9.12436C0.54541 4.08545 4.63087 0 9.66977 0H48.1483C53.1872 0 57.2727 4.08545 57.2727 9.12436V47.6029C57.2727 52.6418 53.1872 56.7273 48.1483 56.7273Z" fill="#3ABCA7"/>
<path d="M48.5454 15.2726H28.909C28.3058 15.2726 27.8181 14.785 27.8181 14.1817C27.8181 13.5785 28.3058 13.0908 28.909 13.0908H48.5454C49.1487 13.0908 49.6363 13.5785 49.6363 14.1817C49.6363 14.785 49.1487 15.2726 48.5454 15.2726Z" fill="white"/>
<path d="M48.5454 30.5456H28.909C28.3058 30.5456 27.8181 30.058 27.8181 29.4547C27.8181 28.8514 28.3058 28.3638 28.909 28.3638H48.5454C49.1487 28.3638 49.6363 28.8514 49.6363 29.4547C49.6363 30.058 49.1487 30.5456 48.5454 30.5456Z" fill="white"/>
<path d="M48.5454 45.818H28.909C28.3058 45.818 27.8181 45.3304 27.8181 44.7271C27.8181 44.1239 28.3058 43.6362 28.909 43.6362H48.5454C49.1487 43.6362 49.6363 44.1239 49.6363 44.7271C49.6363 45.3304 49.1487 45.818 48.5454 45.818Z" fill="white"/>
<path d="M13.7128 18.5457C13.4848 18.5457 13.2546 18.4748 13.0593 18.3275L8.07276 14.5868C7.59058 14.2257 7.4924 13.5417 7.85458 13.0606C8.21567 12.5773 8.89967 12.4813 9.38076 12.8424L13.5502 15.9689L20.3673 8.01839C20.7589 7.56021 21.4484 7.50785 21.9044 7.90057C22.3626 8.29221 22.416 8.98057 22.0222 9.43767L14.5419 18.1649C14.328 18.4158 14.0226 18.5457 13.7128 18.5457Z" fill="white"/>
<path d="M13.7128 33.818C13.4848 33.818 13.2546 33.7471 13.0593 33.5998L8.07276 29.8591C7.59058 29.498 7.4924 28.814 7.85458 28.3329C8.21567 27.8496 8.89967 27.7536 9.38076 28.1147L13.5502 31.2413L20.3662 23.2907C20.7579 22.8315 21.4473 22.7802 21.9033 23.1729C22.3615 23.5645 22.4149 24.2529 22.0211 24.71L14.5408 33.4373C14.328 33.6882 14.0226 33.818 13.7128 33.818Z" fill="white"/>
<path d="M13.7128 50.1808C13.4848 50.1808 13.2546 50.1099 13.0593 49.9626L8.07276 46.2219C7.59058 45.8608 7.4924 45.1768 7.85458 44.6957C8.21567 44.2124 8.89967 44.1164 9.38076 44.4775L13.5502 47.6041L20.3662 39.6546C20.7579 39.1964 21.4473 39.1441 21.9033 39.5368C22.3615 39.9284 22.4149 40.6168 22.0211 41.0739L14.5408 49.8001C14.328 50.051 14.0226 50.1808 13.7128 50.1808Z" fill="white"/>
<path d="M45.8183 59.9998C53.3494 59.9998 59.4546 53.8946 59.4546 46.3634C59.4546 38.8323 53.3494 32.7271 45.8183 32.7271C38.2871 32.7271 32.1819 38.8323 32.1819 46.3634C32.1819 53.8946 38.2871 59.9998 45.8183 59.9998Z" fill="#B1D3EF"/>
<path d="M56.3925 46.9294C55.7925 46.8062 55.2274 47.1978 55.1107 47.7891C54.2161 52.336 50.3085 55.636 45.8183 55.636C42.1627 55.636 38.8943 53.4476 37.3212 50.1814H43.091V47.9996H36.5456H35.4547H34.3638V56.7269H36.5456V53.0822C38.7012 55.9796 42.0929 57.8178 45.8183 57.8178C51.347 57.8178 56.1569 53.7771 57.2521 48.2102C57.3678 47.6189 56.9838 47.0451 56.3925 46.9294Z" fill="#556080"/>
<path d="M55.0914 35.9976V39.6424C52.9357 36.7438 49.543 34.9067 45.8186 34.9067C40.2899 34.9067 35.4801 38.9475 34.3848 44.5144C34.2692 45.1056 34.6532 45.6795 35.2444 45.7951C35.8444 45.9184 36.4095 45.5267 36.5263 44.9355C37.4208 40.3886 41.3284 37.0886 45.8197 37.0886C49.4754 37.0886 52.7437 39.2769 54.3168 42.5431H48.5459V44.7249H55.0914H56.1823H57.2732V35.9976H55.0914Z" fill="#556080"/>
</svg>
