<svg width="15" height="18" viewBox="0 0 15 18" fill="none" xmlns="http://www.w3.org/2000/svg">
<path fill-rule="evenodd" clip-rule="evenodd" d="M12.2929 7.70679C12.3852 7.8023 12.4955 7.87848 12.6175 7.93089C12.7395 7.9833 12.8707 8.01088 13.0035 8.01204C13.1363 8.01319 13.268 7.98789 13.3909 7.93761C13.5138 7.88733 13.6254 7.81307 13.7193 7.71918C13.8132 7.62529 13.8875 7.51364 13.9377 7.39074C13.988 7.26784 14.0133 7.13616 14.0122 7.00339C14.011 6.87061 13.9834 6.73939 13.931 6.61738C13.8786 6.49538 13.8024 6.38503 13.7069 6.29279L7.70692 0.292786C7.51939 0.105315 7.26508 0 6.99992 0C6.73475 0 6.48045 0.105315 6.29292 0.292786L0.292919 6.29279C0.110761 6.48139 0.00996641 6.73399 0.0122448 6.99619C0.0145233 7.25838 0.119692 7.5092 0.3051 7.6946C0.490508 7.88001 0.741321 7.98518 1.00352 7.98746C1.26571 7.98974 1.51832 7.88894 1.70692 7.70679L6.99992 2.41379L12.2929 7.70679ZM1.70692 10.2928C1.51832 10.1106 1.26571 10.0098 1.00352 10.0121C0.741321 10.0144 0.490508 10.1196 0.3051 10.305C0.119692 10.4904 0.0145233 10.7412 0.0122448 11.0034C0.00996641 11.2656 0.110761 11.5182 0.292919 11.7068L6.29292 17.7068C6.48045 17.8943 6.73475 17.9996 6.99992 17.9996C7.26508 17.9996 7.51939 17.8943 7.70692 17.7068L13.7069 11.7068C13.8891 11.5182 13.9899 11.2656 13.9876 11.0034C13.9853 10.7412 13.8801 10.4904 13.6947 10.305C13.5093 10.1196 13.2585 10.0144 12.9963 10.0121C12.7341 10.0098 12.4815 10.1106 12.2929 10.2928L6.99992 15.5858L1.70692 10.2928Z" fill="#87C4E7"/>
</svg>
